<svg xmlns="http://www.w3.org/2000/svg" xmlns:xlink="http://www.w3.org/1999/xlink" preserveAspectRatio="xMidYMid" width="3691" height="3774" viewBox="0 0 3691 3774">
  <defs>
    <style>
      .cls-1 {
        fill: #fff;
        filter: url(#color-overlay-1);
        fill-rule: evenodd;
      }
    </style>

    <filter id="color-overlay-1" filterUnits="userSpaceOnUse">
      <feFlood flood-color="#a8a7a7"/>
      <feComposite operator="in" in2="SourceGraphic"/>
      <feBlend in2="SourceGraphic" result="solidFill"/>
    </filter>
  </defs>
  <path d="M1217.738,1590.156 C1217.738,1256.265 1493.062,985.553 1832.666,985.553 C2172.271,985.553 2447.595,1256.265 2447.595,1590.156 C2447.595,1924.068 2172.271,2194.736 1832.666,2194.736 C1493.062,2194.736 1217.738,1924.068 1217.738,1590.156 ZM2133.725,1587.969 C2133.725,1423.266 1997.946,1289.754 1830.441,1289.754 C1662.935,1289.754 1527.156,1423.266 1527.156,1587.969 C1527.156,1752.649 1662.935,1886.161 1830.441,1886.161 C1997.946,1886.161 2133.725,1752.649 2133.725,1587.969 ZM3354.795,1581.496 C3354.795,1965.522 3207.597,2315.742 2965.658,2580.609 C2959.975,2589.183 2953.314,2597.313 2945.661,2604.837 L1977.308,3601.943 C1969.947,3617.935 1959.592,3632.921 1946.220,3646.070 C1893.142,3698.267 1810.620,3703.827 1751.197,3662.833 C1741.399,3656.866 1732.123,3649.745 1723.621,3641.387 C1716.855,3634.737 1710.868,3627.613 1705.642,3620.130 L719.415,2604.837 C709.956,2595.538 702.009,2585.317 695.559,2574.470 C456.934,2310.341 311.992,1962.563 311.992,1581.496 C311.992,755.375 993.142,85.673 1833.408,85.673 C2136.344,85.673 2418.583,172.748 2655.693,322.798 C2707.579,345.280 2744.560,395.478 2746.571,454.907 L2748.426,468.758 C2751.222,551.418 2685.344,620.648 2601.291,623.387 C2550.618,625.052 2504.916,602.181 2475.981,565.655 L2474.586,567.120 C2289.370,455.685 2071.591,391.443 1838.544,391.443 C1164.584,391.443 618.216,928.605 618.216,1591.238 C618.216,1892.578 731.221,2167.962 917.823,2378.689 C923.743,2383.016 929.424,2387.802 934.796,2393.082 L1022.160,2483.022 C1038.510,2497.499 1055.256,2511.551 1072.387,2525.154 L1580.835,3056.812 C1580.311,3056.726 1579.789,3056.632 1579.264,3056.545 L1832.634,3317.382 L2085.663,3056.840 C2084.131,3057.091 2082.604,3057.358 2081.071,3057.605 L2586.485,2539.315 C2588.894,2537.474 2591.278,2535.603 2593.674,2533.745 L2730.280,2393.082 C2742.794,2380.782 2756.954,2371.102 2772.048,2363.977 C2950.996,2155.221 3058.843,1885.619 3058.843,1591.238 C3058.843,1398.620 3012.665,1216.611 2930.621,1055.309 L2937.154,1048.443 C2907.344,1022.149 2888.052,984.411 2886.601,941.947 L2884.747,928.119 C2881.951,845.458 2947.829,776.228 3031.910,773.489 C3109.101,770.953 3174.781,825.374 3187.157,898.300 C3294.296,1103.097 3354.795,1335.345 3354.795,1581.496 Z" class="cls-1"/>
</svg>
